<?xml version="1.0" encoding="utf-8"?>
<!-- Generator: Adobe Illustrator 20.1.0, SVG Export Plug-In . SVG Version: 6.00 Build 0)  -->
<svg version="1.1" id="Layer_1" xmlns="http://www.w3.org/2000/svg" xmlns:xlink="http://www.w3.org/1999/xlink" x="0px" y="0px"
	 width="242px" height="232px" viewBox="0 0 242 232" style="enable-background:new 0 0 242 232;" xml:space="preserve">
<style type="text/css">
	.st0{fill:#0B4D8C;}
</style>
<g>
	<path class="st0" d="M70.2,63.9c1.2-3.4,2.6-6.7,4.2-10C79.2,44,85.7,34.6,93.8,26c12-12.7,23.8-19.8,27.2-21.7
		c3.4,1.9,15.2,9,27.2,21.7c8.1,8.6,14.6,17.9,19.4,27.9c4.6,9.5,7.6,19.6,9.1,30c0.9,0.8,1.7,1.8,2.6,2.6c0.6,0.6,1.2,1.1,1.9,1.6
		c-1.1-12.6-4.5-24.7-10-36c-5-10.3-11.8-20-20.1-28.9c-13.8-14.6-27.5-22.1-29-23c0,0,0,0,0,0c-0.4-0.3-0.9-0.4-1.4-0.3
		c-0.2,0-0.4,0.1-0.7,0.2c-1.4,0.7-15.1,8.2-29.1,23c-8.4,8.9-15.1,18.6-20.1,28.9c-1.8,3.8-3.4,7.6-4.7,11.5
		C67.4,63.7,68.8,63.8,70.2,63.9z"/>
	<g>
		<path class="st0" d="M236.9,170.3c-3.4-11.7-8.3-22.5-14.7-32c-0.2-0.4-0.5-0.7-0.8-1.1c-1,0.9-2,1.9-3,2.8
			c0.1,0.2,0.3,0.4,0.4,0.6c6.1,9.2,10.9,19.6,14.1,30.9c4.9,16.8,5,30.6,4.9,34.5c-3.3,1.9-15.4,8.5-32.5,12.5
			c-11.5,2.7-22.8,3.6-33.8,2.7c-11.5-0.9-22.7-3.8-33.2-8.6c-1.4,0.6-2.3,1.9-3.5,2.8c11.5,5.5,23.7,8.8,36.4,9.8
			c2.8,0.2,5.6,0.3,8.5,0.3c8.7,0,17.6-1,26.6-3.1c19.6-4.5,32.9-12.5,34.5-13.5c0,0,0,0,0.1,0c0.4-0.2,0.7-0.6,0.9-1.1
			c0.1-0.2,0.1-0.4,0.1-0.7C242,205.5,242.5,189.8,236.9,170.3z"/>
		<path class="st0" d="M106.3,211.1c-11.3,5.6-23.4,8.9-36,9.9c-11,0.9-22.4,0-33.8-2.7C19.4,214.4,7.4,207.8,4,205.9
			C4,202,4.1,188.3,9,171.4c3.3-11.3,8-21.7,14.1-30.9c4.8-7.2,10.4-13.7,16.9-19.4c-0.8-1.1-1.5-2.2-2.5-3.2
			c-6.8,6-12.7,12.8-17.7,20.3c-6.3,9.5-11.3,20.3-14.7,32C-0.5,189.6,0,205.2,0,207c0,0,0,0,0,0c0,0.4,0.1,0.7,0.3,1
			c0.2,0.3,0.4,0.6,0.8,0.8c0,0,0,0,0,0c1.5,0.9,14.9,8.9,34.5,13.5c8.9,2.1,17.8,3.1,26.6,3.1c2.9,0,5.7-0.1,8.5-0.3
			c13.4-1.1,26.2-4.7,38.2-10.7C108,213.3,107.3,212.2,106.3,211.1z"/>
	</g>
	<path class="st0" d="M168.7,117.3l-4.8,15c0,0,0,0,0,0l0.5-15h-10.6c-2.1,10.7-4.2,21.4-6.2,32.1h7.2l4.4-22.8c0,0,0,0,0,0
		c0,0-0.9,16.2-1.3,22.8h5l7.5-23.2l-4.4,23.2h7.2c2-10.7,4-21.4,6-32.1H168.7z"/>
	<path class="st0" d="M194.3,117.3l-6.4,21.9c0,0,0,0,0,0c0,0,1.8-19.7,2-21.8h-8.5c-0.5,10.8-1,21.4-1.5,32.1h12.5
		c3.5-10.7,6.9-21.4,10.4-32.1H194.3z"/>
	<path class="st0" d="M144.5,117.5c-2.3-0.3-4.6-0.4-6.9-0.4l0,0h-6.3l-6.2,32.3c0,0,7.1,0,8.4,0c0,0,0.1,0,0.1,0
		c1.8,0,3.6,0,5.3-0.2c3.8-0.3,5.5-1.8,6.5-5.5c0.1-0.5,0.3-1,0.4-1.5c1.2-6.2,2.4-12.3,3.4-18.5C149.7,120.2,148.1,118,144.5,117.5
		z M141,124.6c0,0.4-0.1,0.7-0.2,1.1c0,0,0,0,0,0c-0.9,4.7-1.7,9.4-2.8,14.1c0,0.2-0.1,0.4-0.1,0.6c-0.4,1.8-0.5,2.9-1.7,3.2
		c0,0,0,0,0,0c0,0-0.1,0-0.1,0c-0.2,0-0.4,0.1-0.7,0.1c-0.9,0-1,0-1,0c1.2-7,2.6-14,4-21.2c0,0,0.6,0,1.2,0
		C140,122.6,141.2,122.8,141,124.6z"/>
	<g>
		<path class="st0" d="M75.3,109.7c0.2,0.2,0.4,0,0.6,0c0,0,0,0,0,0l0,0l0,0.1c0,0,0,0,0,0c0,0.4-0.4,0.8-0.1,1.4
			c0.8-1.2,1.6-2.3,2.3-3.2c0.5-0.2,0.5,0.4,0.9,0.1c0.5-0.5,0.5-1.2,1.1-1.6c-0.5,1.6-1.8,2.8-2.5,4.2c0.1,0.3,0.3,0.5,0.5,0.7
			c0.5-0.1,0.7-0.6,1.2-0.8c0.3-0.2,0.5,0.3,0.9,0c0.3-0.2,0.4-0.6,0.7-0.9c1.4-0.1,1.7-1.5,2.4-2.2c1.8-1,3.3-1.9,4.9-2.8
			c-0.5,0.5-0.6,1.3-1,1.9c-0.8,0.2-1.5,0.5-2.3,0.7c-0.3,0.1-0.1,0.8-0.6,0.7l0,0l0.1,0c-1.5,0.9-2.8,2-3.8,3.6
			c-1.6,0.7-1.9,2.5-3,3.8c0.6,0.2,0.6-0.5,1.2-0.3c-1,1-2,2-2.3,3.5c0.5-0.4,0.8-1,1.6-1.4c-0.7,1.4-2,2.3-2.1,3.9
			c0.6-0.3,0.6-1,1.3-1.1c-0.3,1-0.9,1.8-0.9,2.8c0.4,0,0.4-0.5,0.8-0.4c-0.4,1.1-0.6,2.2-0.3,3.4c0.3-0.4,0.6-0.1,1-0.1
			c0-1.3,0-2.5,0.7-3.8c0.3,0.9,0.1,1.7,0.6,2.3c0.3-1.1-0.2-2.1,0.5-3.1c0.5,0.9,0,2,0.9,2.9c0-0.9-0.4-1.6-0.1-2.3
			c0.5,0.3,0.2,0.8,0.7,1c0.3-1.1-0.3-2.3,0.2-3.5c0.4,0.3,0.2,1,0.7,1.2c0.5-0.7-0.2-1.5,0.3-2.1c0.4,0.5,0.4,1.3,0.9,1.9
			c0.3-1.4-0.5-2.6,0.2-4.1c0.3,1-0.1,1.9,0.7,2.7c0.5-0.8,0-1.8,0.4-2.6c0.4,0.5,0.1,1.3,0.7,1.7c0.1-0.6-0.1-1.2,0.4-1.6
			c0.3,0.1,0.2,0.5,0.5,0.6c0.6-0.8-0.1-1.6,0.2-2.4c0.5,0.4,0.3,1.1,0.9,1.7c-0.1-1.3,0.4-2.1,1.3-2.6c0.5-0.3,0.8-0.7,1.2-1
			c0.7-0.5,1-1.6,2.2-1.7c-0.7,1.3-1.9,2.3-1.6,3.7c-1,0.5-1.5,1.5-2.3,1.9c0,0.3,0.3,0.5,0.1,0.8c-0.6,0.5-1.3,0.9-1.1,1.9
			c-0.4,0.4-0.8,0.9-1.2,1.2c-0.2,0.4,0.2,0.6,0.1,0.9c-0.5,0.9-1.4,1.6-1.8,2.7c0.4,0.3,0.6-0.4,1-0.2c0.2,0.3-0.3,0.6,0.1,0.8
			c0.6-0.2,0.5-1.2,1.2-1.4c0.4,0.1-0.1,0.6,0.4,0.6c0.5-0.4,0.1-1.3,0.8-1.6c0.5,0.1,0.2,0.7,0.6,0.9c0.5-0.4,0.1-1.1,0.7-1.5
			c0.4,0.4-0.3,1,0.4,1.3c0.6-1,0.5-2.3,1.4-3.2c0.1,2.5-1.7,4.7-1.3,7.2c0.1,0.1,0.3,0.3,0.4,0.4c0.1,0.5-0.3,1-0.2,1.4
			c0.2,0.2,0.3-0.3,0.5-0.1c0.2,0.2,0,0.5,0.3,0.6c0.4-0.8,0.1-1.7,0.8-2.4c0.1,0.7-0.2,1.2-0.2,1.7c0,0.5-0.3,1,0,1.7
			c0.6-1.1,0.4-2.4,1.3-3.5c0,1.9-0.7,3.6-0.2,5.2c0.5-0.8-0.2-2,1-2.8c0,2.2,0,4.2,0.8,6.3c0.3-1.7-0.1-3-0.1-4.3
			c0.2-0.4,0.5-0.1,0.7-0.4c0.2-1.3-0.3-2.9,1-3.8c0.2-0.7-0.1-1.5,0.6-2c0.7,0.5,1.8,0.4,2.2,1.4c-0.6,0.4-1.1-0.2-1.7-0.1
			c-0.5,0.1-0.9,0.4-0.7,1c1.6,1.5,1.6,1.5,1.7,2.2c-2.2-0.3-2.2-0.3-2.3,0.8c0.5,0.5,1.4,0.2,1.8,1c-0.4,0.4-1.5-0.1-1.3,1
			c0.3,0.2,0.6,0.5,0.9,0.7c-0.2,0.9,0.8,1.3,1.1,2.1c-0.7,0-1.6-0.9-2,0.3c0.2,0.5,0.7,0.6,1,1c0.2,0.3-0.2,0.7,0.1,1
			c0.2,0.4,0.7,0.5,0.8,0.9c-0.3,0.4-1.1,0.5-0.8,1.3c0.2,0.2,0.4,0.4,0.7,0.6c0,0.3-0.1,0.6-0.1,0.9c0.3,0.3,0.8,0.4,1,0.9
			c-0.1,0.4,0,1,0.3,1.5c0.4,0.7,0.5,1.5,0.4,2.2c-0.4,3.3-0.1,6.6-0.3,9.9c-0.2,3.6,0,7.3-0.2,11c-0.1,2.5-0.1,5.1-0.4,7.6
			c-0.1,1.3,0.1,2.7-0.4,4c-1.1,1.2-3.1-0.2-4.2,1.4c0.4,0.4,0.8,0.3,1.2,0.3c4.7,0,9.4,0.2,14.1,0c0.5,0,0.9,0,1.3-0.4
			c-1.2-1.3-3.1-0.5-4.4-1.3c-0.2-0.5-0.4-1-0.4-1.6c0-4.6-0.7-9.2-0.6-13.9c0-2.6,0.1-5.2,0.2-7.8c0.1-1.4,0.4-2.9,0.2-4.3
			c-0.3-1.6-0.2-3.2-0.2-4.8c0-1.2,0.2-2.5,1.4-3.2c0.3-0.2,0.3-0.4,0.2-0.7c-0.2-0.4-0.8,0-0.9-0.5c0.2-0.7,0.9-0.8,1.2-1.2
			c0.4-0.6-0.4-0.7-0.5-1c0.1-0.3,0.3-0.5,0.6-0.6c0,0,0,0,0,0.1c0-0.1,0.1-0.1,0.1-0.2c0.2-0.1,0.4-0.2,0.5-0.4
			c0.2-0.1,0.3-0.2,0.4-0.3c0-0.3-0.1-0.7-0.1-1.1c0.3-0.2,0.6-0.5,0.8-0.6c0.3-0.9-0.6-1.1-0.9-1.5c0.2-0.5,0.7-0.6,1-1
			c0.3-0.3-0.2-0.8,0.1-1.1c0.3-0.5,0.9-0.5,1.1-1.1c-0.5-1.4-1.5-0.4-2.3-0.4c0.3-0.9,1.5-1.4,1.3-2.4c0.4-0.3,0.8-0.6,1.1-0.8
			c0.1-0.5-0.1-0.7-0.3-0.8c0-0.2,0.1-0.3,0.3-0.4c0.4,1.1-0.2,2.3,0.2,3.5c0.5-0.2,0.3-0.8,0.7-1c0.3,0.7,0,1.5-0.1,2.3
			c0.9-0.9,0.4-1.9,0.9-2.9c0.7,1,0.2,2.1,0.5,3.1c0.6-0.7,0.4-1.4,0.6-2.3c0.7,1.3,0.7,2.5,0.7,3.8c0.3,0,0.7-0.4,1,0.1
			c0.2-1.2,0-2.2-0.3-3.4c0.5-0.1,0.4,0.5,0.8,0.4c0-1-0.6-1.8-0.9-2.8c0.6,0.2,0.7,0.9,1.3,1.1c-0.1-1.6-1.4-2.5-2.1-3.9
			c0.8,0.3,1.1,1,1.6,1.4c-0.2-1-0.8-1.8-1.5-2.6c0.4,0,0.3,0.6,0.7,0.5c0.2-0.9-0.5-1.7-0.3-2.6c0.5,0.1,0.4,0.8,1,0.8
			c0.1-0.5-0.2-0.9-0.4-1.3c-0.3-0.7-0.9-1.2-1.2-2c0,0,0,0,0,0c-0.1-0.1-0.2-0.2-0.3-0.3c-0.1-0.1-0.1-0.1-0.2-0.2
			c-0.1-0.1-0.2-0.2-0.2-0.2c-0.1-0.1-0.2-0.2-0.2-0.2c-0.1-0.1-0.2-0.2-0.2-0.2l0,0c0.1,0.1,0.2,0.2,0.2,0.2
			c0.1,0.1,0.2,0.2,0.2,0.2c0.1,0.1,0.2,0.2,0.2,0.2c0.1,0.1,0.1,0.1,0.2,0.2c0.1,0.1,0.2,0.2,0.3,0.3c0,0,0,0,0,0
			c0.7,0.4,1,1.2,1.8,1.6c0.2,0.7,0.3,1.3,0.9,1.7c0.2,1-0.1,2,0.2,3.1c0.4-0.8,0.2-1.7,0.6-2.6c0.3,0.8,0,1.5,0.3,2.1
			c0.3-0.2,0.1-0.6,0.3-0.7c0.4-0.2,0.4,0.5,0.6,0.2c0.3-0.5-0.2-1,0.1-1.5c0.3,0.3,0.5,0.6,0.8,1c0.2-0.6-0.4-1.1,0-1.7
			c0.6,0.3,0.5,1.2,1.4,1.5c-0.2-0.5-0.3-0.9-0.5-1.2c0-0.4,0.4-0.5,0.3-0.8c-1.7-3.7-1.8-4.1-1.4-4.9c0.5,0.3,0.3,1.1,0.7,1.4
			c0.3,0,0.3-0.5,0.8-0.2c0.2,0.6-0.1,1.4,0.4,2c0.4-0.6-0.1-1.3,0.5-1.8c0.3,0.6,0.4,1.2,0.6,1.8c0.5,0.1,0.8,0.5,0.9,1.1
			c0.3-0.2,0.2-0.6,0.6-0.6c0.8,1.4,0.7,3.1,1.1,4.7c0.5,0,0.7,0.3,0.9,0.8c0.1,0.4,0.2,0.9,0.7,1.4c-0.3-2-0.4-3.7-0.9-5.3
			c0.1-0.3,0.6-0.2,0.7-0.7c0.1-0.7-0.5-1.3-0.8-2.1c0.3-0.9-0.2-1.7-0.7-2.4c-0.2-0.3-0.5-0.6-0.6-1c0,0,0,0,0,0l0,0l0.1,0
			c0,0,0,0,0,0c0.5,0,0.8,0.5,1.6,0.3c-0.8-0.7-1.4-1.2-2-1.7c0-0.4,0.4-0.6,0.1-0.9c-0.5-0.4-0.9-0.8-1.3-1.1
			c-0.2-0.3,0.2-0.5-0.1-0.8c-0.5-0.3-1-0.7-1.6-1.1c-0.3-0.2-0.5-0.4-0.3-0.8c0,0,0,0,0,0c0,0,0,0,0,0c0-0.1-0.1-0.1-0.1-0.2
			c0.1,0,0.1,0.1,0.1,0.2c0,0,0,0,0,0c0,0,0,0,0,0c0.2-0.1,0.4,0.2,0.7-0.1v-0.6c0,0,0,0,0,0c0-0.1,0-0.1,0-0.2c0,0.1,0,0.2,0.1,0.2
			v0c0.4,0.3,0.3,1,0.8,1.2c0.3-0.5-0.3-0.9,0.1-1.4c0.6,0.8,0.7,1.8,1.3,2.5c0.1,0,0.2,0,0.2-0.1c0.1-0.1,0.2-0.1,0.3,0
			c0.3,0.8,0.4,1.7,1.3,2.5c-0.1-1.4-0.8-2.5-0.7-3.8c1.3,1.7,1.6,3.8,2.7,5.8c0-2.1-1.2-3.7-1.3-5.6c0.6,0.2,0.6,1,1.3,1.1
			c0-1.5-1.1-2.4-1.6-3.5c0.2-0.4,0.6,0.1,0.7-0.3c0-0.3-0.6-0.3-0.5-0.7c0.5-0.2,1.2,0.1,1.4-0.6c-0.7-0.3-1.4,0-2.2-0.3
			c0.9-0.5,2.1-0.2,2.4-1.5c-1.2,0.3-2.2,0.9-3.4,0.3c0-0.5,0.7-0.4,0.6-1h-2.6c-0.1-0.4-0.2-0.6-0.3-1c-1.4,0.3-2.7-0.2-3.9-1
			c0.4-0.1,0.8,0.4,1.1-0.1c-0.1-0.1-0.1-0.2-0.2-0.3l0,0l0,0.1c1,0,1.9,0.9,3,0.3c0.4,0.2,0.7,0.6,0.9,0.5c0.4-0.1,0.3-0.4,0.5-0.5
			c0.5,0.2,0.8,0.9,1.5,0.6c0-0.6-0.7-0.7-0.8-1.3c1,0.2,1.6,1.1,2.7,1c-0.1-1.1-1.4-1.2-1.7-2c0.4-0.2,0.8,0.1,1.1,0.1
			c0.3,0,0.7,0.1,1-0.1c-0.5-0.6-1.3-0.3-1.7-0.9c0.2-0.4,0.8,0,1-0.5c-0.3-0.6-0.9-0.3-1.3-0.5c-0.3-0.3,0.2-0.6-0.2-0.6
			c-0.9-1.3-2.4-0.8-3.6-1.5c-1,0.2-1.9,0.9-3,0.2c-1.4,0.8-3.1,0.8-4.5,1.6c-0.8,0.4-1.7,0.3-2.6,0.2c-0.9-0.1-1.4-0.6-1.1-1.6
			c0.3,0.2,0.2,0.7,0.6,0.8c0.1-0.2,0.1-0.5,0.3-0.6c0.4-0.1,0.3,0.6,0.7,0.4c0.2-0.3-0.1-0.7,0.2-1c0.4,0,0.2,0.6,0.7,0.6
			c0.3-0.3,0.1-0.7,0.2-1c0,0,0,0,0,0c0,0,0,0,0,0c-0.1-0.2-0.3-0.5-0.1-0.8c0.5,0.2,0.2,0.5,0.1,0.8c0,0,0,0,0,0c0,0,0,0,0,0
			c0.5,0,0.3,0.8,0.9,0.7c0.4-0.6-0.3-1.3,0.2-1.9c0.3,0.3,0.3,0.8,0.7,0.9c0.4-0.4,0-0.9,0.2-1.2c0.5,0.1,0.3,0.7,0.8,0.7
			c0.3-0.5,0-1.1,0.2-1.7c0.6,0.7,0.6,1.7,1.3,2.2c0.5-0.4-0.1-0.9,0.2-1.2c0.3,0.1,0.4,0.6,0.9,0.5c0.3-0.6-0.5-1.2-0.2-1.9
			c0.8,0.6,1.1,1.7,2.1,2c0.2-0.7-0.4-1.2-0.4-1.8c0.7,0.3,0.8,1.3,1.6,1.2c0.1-0.9-0.9-1.3-1.1-2.1c0,0,0,0,0,0l0,0c0,0,0,0,0,0
			c1.3,0.4,1.9,1.8,3.2,2.5c0.2-0.7-0.4-1.1-0.4-1.7c0.7,0.3,0.9,1.1,1.8,1.1c-0.2-1.3-1.4-1.8-2-2.6c0.1-0.1,0.2-0.3,0.4-0.4
			c-0.5-0.2-0.8-0.6-1.1-1.1c-1.3,0.3-1.6-1.4-2.8-1.4c-0.3,0-0.6,0.4-0.9,0.3c-0.2-0.2,0.3-0.5-0.1-0.7c-0.6-0.1-0.6,0.7-1.2,0.8
			c-0.2-0.4,0.1-1.1-0.8-1.2c-1,0.3-1.4,1.4-2.4,2c-0.3-0.3,0.2-0.7-0.2-0.9c-0.5,0-1.1,0.2-1.2,0.7c-0.4,1.2-1.4,1-2.2,1.1
			c0.3-0.6,1-0.5,1.4-1c0.2-0.2-0.4-0.4,0.1-0.7c0.9-0.3,1.8-0.6,2.8-0.9c-1.3-0.6-2.4,0.1-3.6,0.1c1.7-1.3,3.7-1.3,5.8-1.7
			c-0.4-0.4-0.9-0.1-1.2-0.4c0.4-0.4-0.4-0.5-0.3-0.8c0.1-0.2,0.5-0.1,0.5-0.4c-0.1-0.4-0.5-0.2-0.6-0.5c0.6-0.4,1-0.9,1.6-1.3
			c-1.4,0.1-2.7-0.3-4.1-0.1c-0.3-0.1-0.2-0.6-0.6-0.4c-0.8,0.6-1.2,1.6-2.1,2.3c0-0.9,0.8-1.2,1-2c-1.3,0.3-1.4,1.7-2.4,2.2
			c0-0.6,0.7-0.9,0.5-1.6c-0.9,0.5-0.9,1.7-1.8,2.1l0,0c0,0,0,0.1,0,0.1c0,0,0,0,0-0.1l0,0c0,0,0,0,0,0c0,0,0,0,0,0
			c0.3-0.5,0.5-1,0.7-1.5c-0.4-0.3-0.5,0.3-0.7,0.1c-0.2-0.5,0.4-0.8,0.1-1.2c-1,0.8-1.3,2-2,3.1c-0.2-0.6,0.3-1,0-1.5
			c-0.4,0.4-0.4,1-0.8,1.4c0.2-2,0.2-2-0.4-2.9c-0.1-1.4,0.9-3-0.8-4.1c-0.4,0.5,0,1-0.5,1.4c-0.5-1,0-2.1-0.2-3.1
			c-0.5,0.6-0.2,1.5-0.9,1.9c-0.4-0.5,0-1.1-0.2-1.6c-0.8,0.3,0,1.1-0.6,1.4c-0.4-0.2,0.1-0.7-0.4-0.9c-0.6,0.6-0.2,1.4-0.6,1.9
			c-0.6,1.1-1.4,2-2.2,3c-0.6-0.6-0.4-1.5-0.9-2.1c-0.5,1,0.4,2,0,3.1c-0.5-0.7-0.3-1.4-0.8-2c-0.4,1,0.4,1.9,0,2.8
			c-0.5-0.1-0.2-0.7-0.7-0.6c-0.1,0.4,0.3,1.1-0.5,1c-0.1,0.5,0.3,0.9,0.2,1.2c-0.4,0.2-0.5-0.8-0.9-0.1c0,0,0,0.1,0,0.1
			c0,0,0,0,0-0.1c0,0,0,0,0,0l0,0c-0.2,0-0.4,0-0.5,0.2c-0.1,1.2,1,1.9,1.3,3.1c-0.6-0.4-0.8-0.9-1.3-1.2c0.1,0.9,0,1.7-0.2,2.5
			c-0.6-1.7-1.4-3.3-2.5-4.6c-0.4,0.1,0.1,0.6-0.4,0.6c-0.3-0.2-0.3-0.7-0.8-0.9c-0.3,0.1-0.8,0.1-1.1,0.4c-0.3,0.2-0.7-0.9-1,0.1
			c-0.4-0.2-0.6-0.6-1.2-0.7c-0.2,0.2-0.6,0.2-1,0.1c0,0.2,0,0.4-0.1,0.6c-0.3,0-0.6-0.4-0.9,0c0.3,0.9,0.5,1.7,0.8,2.7
			c0.2,0.2,0.5,0.4,0.8,0.7c-0.3,0.6,0.4,1.1,0,1.5c0.2,0.4,0.9,0.3,0.8,1.1c-1.9-0.9-3.8-0.7-5.8-0.1c0.1,0.6-0.9,0.1-0.9,0.8
			c0.3,0.3,0.9,0,1.1,0.6c-0.4,0.6-1.5,0.1-1.6,1.1c0.3,0.3,0.7-0.3,1,0.1c-0.1,0.2-0.2,0.3-0.5,0.6c0.7-0.1,1,0.4,1.4,0.6
			c0.4,0.1,1-0.2,1.5,0.4c-0.8,0.1-1.3,0.5-1.7,0.9c-0.6,0.2-1-0.3-1.5,0c-0.2,0.3,0.3,0.3,0.2,0.6c-0.3,0.2-0.8,0-0.9,0.5
			c0.3,0.4,0.8,0,1.1,0.6c-0.6,0.4-1.4-0.3-2,0.4c-0.1,0.2-0.3,0.5-0.5,0.8c0.3,0.5,0.9,0.2,1.3,0.6c-0.3,0.4-0.7,0.1-1,0.4
			c0.7,0.5-0.2,0.6-0.3,0.8c0.2,0.5,0.8,0.2,1,0.7c-0.3,0.5-1.1,0.1-1.4,0.7c0,0.4,0.6,0.1,0.6,0.5c-0.4,0.3-1.1,0.1-1.6,0.6
			c0.7,0.5,1.5,0,2.1,0.4c-0.3,0.7-1,1.1-1.5,1.6c0,0.2,0,0.5,0,0.7c-0.4,0.4-0.9,0.5-0.9,1.1c0.1,0.2,0.5,0.1,0.4,0.4
			C75.9,108.3,75.1,108.8,75.3,109.7z M117.7,115.1c0.6,0,0.3,0.3,0.2,0.6C117.5,115.5,117.5,115.3,117.7,115.1z M116.5,105.7
			c-0.4-0.4-0.6-0.9-0.8-1.5C116.5,104.7,116.5,104.7,116.5,105.7z M110.7,100c0.1-0.4,0.6-0.5,1-0.3c1.1,0.4,2.1,0.5,3.3,0.3
			c0.3-0.1,0.7,0,1.1,0.5c-2.3-0.2-4.5,0-6.4,1.1c-0.3-0.3-0.2-0.5-0.1-0.8C109.9,100.5,110.5,100.7,110.7,100z M109.9,90.3
			c-0.1,0.5-0.4,0.5-0.7,0.4C109.3,90.2,109.6,90.3,109.9,90.3z M108.9,125.9c0.1-0.2,0.3-0.3,0.5-0.4c0,0.3,0,0.5,0,0.8
			c-0.2,0-0.4-0.1-0.6-0.2C108.9,126.1,108.9,126,108.9,125.9z M103.6,86.8c0.1,0.8-0.2,1.5-0.5,2.2C103,88.3,103.2,87.5,103.6,86.8
			z M102.6,103.1c0.3,0.2,0.5,0.4,0.5,0.8c-0.2,0.1-0.4,0.2-0.6,0.3C102.3,103.7,102.3,103.4,102.6,103.1z M101.1,88.7
			c0.6,0,0.4,0.5,0.6,0.7c-0.2,0.4-0.4,0.7-0.9,0.9C100.7,89.7,100.9,89.2,101.1,88.7z M98.3,81.1c0.2,0.4,0.3,0.6,0.2,1
			C98,81.9,98.1,81.6,98.3,81.1z M91.7,107.2c-0.1-0.4-0.1-0.7,0.2-1c0.6,0.2,0.9,0.6,0.9,1.2C92.2,107.6,92,107.4,91.7,107.2z
			 M91.5,121.3c0-0.4,0-0.7,0.5-0.8C92,120.9,91.8,121.1,91.5,121.3z M91.8,112.4C91.8,112.4,91.8,112.4,91.8,112.4
			C91.8,112.4,91.8,112.4,91.8,112.4c0.1,0.3,0.4,0.6-0.2,0.8C91.4,112.9,91.8,112.7,91.8,112.4C91.8,112.4,91.8,112.4,91.8,112.4
			C91.8,112.4,91.8,112.4,91.8,112.4c0.3-0.4,0.5-0.8,1.1-0.9C92.8,112.3,92.4,112.5,91.8,112.4z M97.5,123.9
			c-0.4,0.3-0.7,0.4-1.2,0C96.8,123.2,97.1,123.6,97.5,123.9z M96.3,116.6c0.5,0.6,0.2,1,0.2,1.5c-1.2,0-2,0.8-2.9,1.2
			c-0.3-0.4,0-0.6,0.1-0.9C94.7,118,95.9,118,96.3,116.6z M93.5,104c0.5,0.2,0.2,0.6,0.4,0.8c0.2,0.2,0.7,0,0.7,0.2
			c0.2,0.7,0,0.9-0.5,1C93.5,105.5,93.4,104.8,93.5,104z M84.2,100.5c0.3-0.2,1,0,0.8-0.7c0.4-0.2,0.5,0.2,0.8,0.1
			c0.3-0.3,0-0.8,0.2-1.1c0.4-0.2,0.8,0,1.2,0.1c0.1-0.2,0.2-0.3,0.3-0.5c0.4,0.1,0.8,0.5,1.2,0c0,0,0,0,0,0
			c-0.6-0.2-0.8-0.7-1.1-1.2c0.5-0.2,0.6,0.5,1.1,0.4c0.1-0.1,0.1-0.2,0.2-0.3c0,0,0,0,0,0l0,0c0,0,0,0,0,0c0.1,0,0.3,0,0.5-0.1
			c-0.1-0.5,0.1-0.9,0.8-1c0.2,0,0.4,0.5,0.7,0.5c0.3-0.1,0.2-0.4,0.3-0.6c0,0,0,0,0,0l0,0c0,0,0,0,0,0c0.6,0.7,1.7,0,2.2,0.9
			c0.5-0.4-0.1-0.7,0-1.1c0.6,0.3,1,0.7,1.2,1.3c-0.3,0.5-0.7,0.5-1.1,0.3c-1.1-0.5-2.2-0.6-3.3-0.1l-0.1,0l0.1,0
			c-0.3,0.2-0.7,0.5-1,0.7c0,0,0,0,0,0c0,0,0,0,0,0c-0.7,0.8-1.5,1.6-2.4,2.2c-0.8,0.7-1.7,1.1-2.8,1.1
			C84.1,101.2,84.2,100.9,84.2,100.5z"/>
		<path class="st0" d="M59.4,106.3c9.3,0,16.8-7.5,16.8-16.8c0-9.3-7.5-16.8-16.8-16.8c0,0-0.1,0-0.1,0c5.6,2.1,9.6,7.4,9.6,13.7
			c0,8.1-6.5,14.7-14.6,14.7c-3.7,0-7-1.4-9.6-3.6C47.5,102.7,53,106.3,59.4,106.3z"/>
	</g>
	<path class="st0" d="M120.3,232L14.6,90.2l42.6-28.6l60,3.6L129,79.6l48.4,1.8l52.8,50.3L120.3,232z M20.4,91.2L120.9,226
		l103.4-94.3l-48.5-46.3l-48.7-1.9l-11.9-14.5l-56.9-3.4L20.4,91.2z"/>
	<g>
		<path class="st0" d="M90.6,52.7c-2,0-3.5-1.3-3.5-3.3v-5.9c0-1.9,1.5-3.3,3.5-3.3c2,0,3.2,1.3,3.2,3.1v1.6h-2.4v-1.6
			c0-0.4-0.3-0.7-0.8-0.7c-0.5,0-0.7,0.3-0.7,0.7v6.3c0,0.4,0.2,0.7,0.7,0.7c0.5,0,0.8-0.3,0.8-0.7V48h2.4v1.6
			C93.8,51.4,92.6,52.7,90.6,52.7z"/>
		<path class="st0" d="M98.1,52.7c-1.9,0-3.4-1.2-3.4-3.1v-6.2c0-1.8,1.5-3.1,3.4-3.1c1.9,0,3.4,1.2,3.4,3.1v6.2
			C101.5,51.4,100,52.7,98.1,52.7z M98.7,43.2c0-0.4-0.3-0.6-0.6-0.6c-0.3,0-0.6,0.2-0.6,0.6v6.5c0,0.4,0.3,0.6,0.6,0.6
			c0.3,0,0.6-0.2,0.6-0.6V43.2z"/>
		<path class="st0" d="M109.3,52.4v-8l-0.5,2.9l-0.9,5.1h-1.7l-0.8-5.1l-0.4-2.9v8h-2.4V40.5h3.6l0.9,4.7l0.3,2.1l0.3-2.1l0.8-4.7
			h3.6v11.9H109.3z"/>
		<path class="st0" d="M119.9,52.4v-8l-0.5,2.9l-0.9,5.1h-1.7l-0.8-5.1l-0.4-2.9v8h-2.4V40.5h3.6l0.9,4.7l0.3,2.1l0.3-2.1l0.8-4.7
			h3.6v11.9H119.9z"/>
		<path class="st0" d="M123.6,52.4V40.5h2.7v11.9H123.6z"/>
		<path class="st0" d="M131.7,42.9v9.5H129v-9.5h-1.9v-2.4h6.6v2.4H131.7z"/>
		<path class="st0" d="M138.6,42.9v9.5h-2.7v-9.5H134v-2.4h6.6v2.4H138.6z"/>
		<path class="st0" d="M141.3,52.4V40.5h5.8v2.3H144v2.5h2v2h-2V50h3.1v2.4H141.3z"/>
		<path class="st0" d="M151.5,52.4H148V40.5h3.5c2,0,3.3,1.3,3.3,3.2v5.7C154.8,51.3,153.4,52.4,151.5,52.4z M152,43.7
			c0-0.6-0.2-0.9-0.8-0.9h-0.5v7.4h0.5c0.5,0,0.8-0.3,0.8-0.9V43.7z"/>
	</g>
	<g>
		<path class="st0" d="M16.1,199.7c-2,0-3.5-1.3-3.5-3.3v-5.9c0-1.9,1.5-3.3,3.5-3.3c2,0,3.2,1.3,3.2,3.1v1.6h-2.4v-1.6
			c0-0.4-0.3-0.7-0.8-0.7c-0.5,0-0.7,0.3-0.7,0.7v6.3c0,0.4,0.2,0.7,0.7,0.7c0.5,0,0.8-0.3,0.8-0.7v-1.6h2.4v1.6
			C19.2,198.5,18,199.7,16.1,199.7z"/>
		<path class="st0" d="M23.5,199.7c-1.9,0-3.4-1.2-3.4-3.1v-6.2c0-1.8,1.5-3.1,3.4-3.1c1.9,0,3.4,1.2,3.4,3.1v6.2
			C27,198.5,25.5,199.7,23.5,199.7z M24.2,190.3c0-0.4-0.3-0.6-0.6-0.6c-0.3,0-0.6,0.2-0.6,0.6v6.5c0,0.4,0.3,0.6,0.6,0.6
			c0.3,0,0.6-0.2,0.6-0.6V190.3z"/>
		<path class="st0" d="M34.8,199.5v-8l-0.5,2.9l-0.9,5.1h-1.7l-0.8-5.1l-0.4-2.9v8H28v-11.9h3.6l0.9,4.7l0.3,2.1l0.3-2.1l0.8-4.7
			h3.6v11.9H34.8z"/>
		<path class="st0" d="M42.4,195.2h-1.1v4.3h-2.7v-11.9h3.9c1.4,0,2.6,0.9,2.6,2.6v2.3C45,194.2,43.8,195.2,42.4,195.2z M42.4,190.3
			c0-0.4-0.2-0.6-0.5-0.6h-0.7v3.4h0.7c0.3,0,0.5-0.2,0.5-0.6V190.3z"/>
		<path class="st0" d="M45.9,199.5v-11.9h5.8v2.3h-3.1v2.5h2v2h-2v2.6h3.1v2.4H45.9z"/>
		<path class="st0" d="M56.8,190v9.5h-2.7V190h-1.9v-2.4h6.6v2.4H56.8z"/>
		<path class="st0" d="M59.5,199.5v-11.9h5.8v2.3h-3.1v2.5h2v2h-2v2.6h3.1v2.4H59.5z"/>
		<path class="st0" d="M71,199.5l-1.7-4.4l-0.7-1.7v6h-2.4v-11.9h2.4l1.6,4.4l0.6,1.7v-6.1h2.4v11.9H71z"/>
		<path class="st0" d="M78.6,190v9.5h-2.7V190h-1.9v-2.4h6.6v2.4H78.6z"/>
	</g>
	<g>
		<path class="st0" d="M170.3,204.2c-2,0-3.5-1.3-3.5-3.3v-5.9c0-1.9,1.5-3.3,3.5-3.3c2,0,3.2,1.3,3.2,3.1v1.6h-2.4v-1.6
			c0-0.4-0.3-0.7-0.8-0.7c-0.5,0-0.7,0.3-0.7,0.7v6.3c0,0.4,0.2,0.7,0.7,0.7c0.5,0,0.8-0.3,0.8-0.7v-1.6h2.4v1.6
			C173.5,203,172.2,204.2,170.3,204.2z"/>
		<path class="st0" d="M177.8,204.2c-1.9,0-3.4-1.2-3.4-3.1v-6.2c0-1.8,1.5-3.1,3.4-3.1c1.9,0,3.4,1.2,3.4,3.1v6.2
			C181.2,203,179.7,204.2,177.8,204.2z M178.4,194.8c0-0.4-0.3-0.6-0.6-0.6c-0.3,0-0.6,0.2-0.6,0.6v6.5c0,0.4,0.3,0.6,0.6,0.6
			c0.3,0,0.6-0.2,0.6-0.6V194.8z"/>
		<path class="st0" d="M185.6,204.2c-1.9,0-3.4-1.3-3.4-2.9v-9.2h2.8v9.2c0,0.4,0.3,0.6,0.6,0.6c0.4,0,0.6-0.2,0.6-0.6v-9.2h2.6v9.2
			C188.8,202.9,187.5,204.2,185.6,204.2z"/>
		<path class="st0" d="M194.6,204c-0.4,0-0.6-1-0.6-1.8V200c0-0.3-0.2-0.7-0.6-0.7h-0.6v4.7H190v-11.9h3.8c1.3,0,2.6,0.9,2.6,2.5
			v2.1c0,0.6-0.4,1.2-1.1,1.6c0.7,0.3,1.2,1,1.2,1.6v2.2c0,0.7,0.2,1.4,0.3,1.9v0.1H194.6z M193.8,194.8c0-0.4-0.2-0.6-0.5-0.6h-0.7
			v3.1h0.7c0.3,0,0.5-0.2,0.5-0.6V194.8z"/>
		<path class="st0" d="M201.8,194.5v9.5h-2.7v-9.5h-1.9v-2.4h6.6v2.4H201.8z"/>
		<path class="st0" d="M204.4,204v-11.9h5.8v2.3h-3.1v2.5h2v2h-2v2.6h3.1v2.4H204.4z"/>
		<path class="st0" d="M214.4,204.2c-1.9,0-3.4-1.2-3.4-3.1v-6.2c0-1.8,1.5-3.1,3.4-3.1c1.9,0,3.4,1.2,3.4,3.1v6.2
			C217.9,203,216.4,204.2,214.4,204.2z M215.1,194.8c0-0.4-0.3-0.6-0.6-0.6c-0.3,0-0.6,0.2-0.6,0.6v6.5c0,0.4,0.3,0.6,0.6,0.6
			c0.3,0,0.6-0.2,0.6-0.6V194.8z"/>
		<path class="st0" d="M222.2,204.2c-1.9,0-3.4-1.3-3.4-2.9v-9.2h2.8v9.2c0,0.4,0.3,0.6,0.6,0.6c0.4,0,0.6-0.2,0.6-0.6v-9.2h2.6v9.2
			C225.5,202.9,224.2,204.2,222.2,204.2z"/>
		<path class="st0" d="M229.7,204.2c-2.1,0-3.3-1.1-3.3-3.1v-0.9h2.4v0.9c0,0.5,0.3,0.9,0.8,0.9s0.8-0.3,0.8-0.9
			c0-0.8-0.7-1.5-1.6-2.3c-1.1-0.9-2.3-2.1-2.3-3.7c0-1.7,1.1-3.3,3.4-3.3c1.8,0,3.1,1.3,3.1,3.1v0.8h-2.4v-0.9
			c0-0.5-0.3-0.8-0.7-0.8c-0.4,0-0.7,0.3-0.7,0.8c0,0.9,0.7,1.4,1.6,2.3c1.1,1,2.3,2.1,2.3,3.8C233,202.8,231.7,204.2,229.7,204.2z"
			/>
	</g>
</g>
</svg>
