<?xml version="1.0" encoding="utf-8"?>
<!-- Generator: Adobe Illustrator 20.1.0, SVG Export Plug-In . SVG Version: 6.00 Build 0)  -->
<svg version="1.1" id="Layer_1" xmlns="http://www.w3.org/2000/svg" xmlns:xlink="http://www.w3.org/1999/xlink" x="0px" y="0px"
	 width="386px" height="110px" viewBox="0 0 386 110" style="enable-background:new 0 0 386 110;" xml:space="preserve">
<style type="text/css">
	.st0{fill:#0B4D8C;}
</style>
<g>
	<g>
		<path class="st0" d="M106.6,109.9c-14.8,0-22.1-8.1-19.4-22l1.2-6.1h16.9l-1.2,6.1c-0.7,3.7,0.9,6.4,4.7,6.4c3.8,0,6-2.3,6.8-6.4
			c1.2-6-3-10.4-8.2-16.3C101,65.3,93.7,56.9,96,45.3c2.4-12.3,12.6-23.8,28.5-23.8c12.9,0,19.9,9.4,17.4,21.9l-1.1,5.5h-16.9
			l1.2-6.1c0.7-3.4-1-5.5-3.7-5.5c-2.7,0-5.5,1.9-6.3,5.6c-1.3,6.7,3.1,10.2,8.3,16.3c6.5,7,13.5,15,11.1,26.9
			C132,99.5,121,109.9,106.6,109.9z"/>
		<path class="st0" d="M160.8,109.9c-14.4,0-23.3-9.3-20.6-23.3l8.2-41.9c2.7-13.9,15.3-23.3,29.7-23.3c13.9,0,20.7,9,18.2,22.1
			L194,54.7h-17l2.2-11.4c0.6-2.9-0.9-5.1-4.4-5.1c-3.5,0-5.7,2.2-6.3,5.1L159.7,88c-0.6,2.9,0.8,5.1,4.3,5.1c3.5,0,5.9-2.2,6.4-5.1
			l2.2-11.4h17l-2.2,11.2C185,101,174.7,109.9,160.8,109.9z"/>
		<path class="st0" d="M215.1,108h-24.6L207,23.3h24.6c14,0,21.7,9.2,19,22.7l-8,40.7C240.1,100.4,229.1,108,215.1,108z M231.3,45.8
			c0.8-4.2-0.4-6.4-4.2-6.4h-3.8L213,92h3.8c3.8,0,5.9-2.3,6.7-6.5L231.3,45.8z"/>
		<path class="st0" d="M294,108L305.2,51l-7.5,20.8L284.3,108h-12.1l1.3-36.1l1-20.8L263.3,108H246l16.6-84.6h25.5l-0.4,33.2
			l-0.9,14.9l4.9-14.9L304,23.3h25.3L312.7,108H294z"/>
		<path class="st0" d="M352.3,108h-18.7l-0.2-84.6H353l-3,51.3l17.5-51.3H386L352.3,108z"/>
	</g>
	<g>
		<path class="st0" d="M15.6,0.1c0,0-0.1,0-0.1,0C21.4,2.3,25.6,8,25.6,14.7c0,8.6-6.9,15.6-15.5,15.6c-3.9,0-7.4-1.5-10.2-3.8
			c3,5.6,8.9,9.4,15.6,9.4c9.8,0,17.8-8,17.8-17.9C33.4,8.1,25.5,0.1,15.6,0.1z"/>
	</g>
	<g>
		<path class="st0" d="M90.7,32.7c0.5-0.3,1.2,0.2,1.8-0.4c-0.8-0.4-1.7,0.1-2.4-0.4c0.8-0.6,2.2-0.5,2.4-2c-0.7,0-0.8,0.7-1.3,0.7
			h-2.9c0.7-0.2,1.1-0.5,1.4-1.3h-3.2c-0.1-0.4-0.1-0.6-0.2-0.8c-0.9-0.3-1.8,0.2-2.7-0.3c0.1-0.4-0.1-0.8,0.3-1.2
			c0.4,0.9,1.4,0.2,2,0.9c0.1-0.4,0.2-0.7,0.4-1.2c0.6,0.6,1,1.1,1.4,1.6c0.1-0.3,0.2-0.5,0.4-0.9c0.6,0.6,1.1,1.4,2.1,0.8
			c0-0.5-0.9-0.5-0.7-1.2c0.6-0.4,0.8,0.4,1.2,0.4c0.6-0.1,0.8,1,1.5,0.2c-0.8-0.7-1.3-1.6-2.5-1.9c0.8-0.2,1.4-0.4,2,0.1
			c0.5,0.3,0.9,0.2,1.4-0.1c-0.8-0.3-1.4-0.5-1.9-1.1c0.4-0.3,1,0.1,1.3-0.3c-0.8-0.6-1.8-0.7-3.2-0.9c1.7-0.4,1.7-0.4,1.7-0.6
			c-0.5-0.4-1.2,0.1-1.9-0.2c-0.2-0.3-0.4-0.7-0.6-0.9c-1.1-0.1-2,0.2-2.6-0.5c-1,0.5-1.8,0.8-2.4,0.3c-1.4,0-2.3,0.7-3.6,0.7
			c-1.1,0.1-2.3,0.6-3.2,1.3h-2.2c0.3-0.5-0.1-1,0.3-1.3c0.2,0.2,0.3,0.3,0.5,0.4c0.4-0.1,0-0.8,0.5-0.9c0.2,0.1,0.3,0.3,0.5,0.4
			c0.4-0.6-0.1-1.3,0.4-1.9c0.6,0.5-0.2,1.8,1.2,1.7c-0.4-1-0.8-2-0.3-3.3c0.4,0.8,0,1.7,1.1,1.9c0.3-0.4-0.1-0.9,0.3-1.3
			c0.4,1.1,0.4,1.1,1.2,1.7c0.1-0.9-1-1.7-0.1-2.6c0.5,0.9,0.9,1.9,1.3,2.7c0.9-0.8-0.4-1.5-0.1-2.4c0.6,0.3,0.8,1,1,1.4
			c1.2-0.9-0.8-1.5-0.1-2.1c1.4,0.2,1.4,1.9,2.7,2.3c-0.2-0.9-1.1-1.5-0.5-2.9c0.8,0.8,1.4,1.4,2,2c0.2-0.8-1.2-1-1.4-2.1
			c1.6,0.6,2.3,2.2,3.5,2.9c0.4-0.6-0.1-0.9-0.4-1.2c-0.3-0.3-0.7-0.6-0.1-1.1c0.3,0.3,0.6,0.7,1,1c0.3,0.3,0.5,0.7,1,0.8
			c0.5-1-0.9-1.1-0.9-2c0-0.8-1.2-0.5-1.4-1.3c0.2-0.3,0.3-0.5,0.4-0.7c-1.1-0.8-2.4-1.1-3-2.5c-0.6,0.7-1.5-0.8-1.8,0.4
			c-0.4-0.2,0-0.8-0.6-1c-0.7-0.1-0.8,0.8-1.5,0.9c-0.2-0.6,0.2-1.2-0.3-1.8c-0.9,0.9-1.9,1.9-2.8,2.8c-0.5-0.5,0.2-1.3-0.7-1.4
			c-0.1,0.5-0.4,0.8-0.7,0.9c-0.9,0.6-1.9,0.8-2.5,0.8c1.2-0.8,1.1-0.8,2.5-0.8c-0.2-0.7-1-0.2-1.2-0.7c0.6-0.4,1.3-0.1,1.9-0.2
			c0-0.7,0.5-0.5,0.8-0.5c0.7,0,1.2-0.1,1.5-0.9c-1.4-0.2-2.8,1-4.4,0.1c2.2-0.7,4.2-1.1,6.3-1.4c-1.1-0.4-1.5-1.4-2.4-1.9
			c0.4-0.4,1,0.1,1.3-0.4C80.8,8,80,8.1,80.3,7.7c0.4-0.3,1,0.2,1.3-0.4c-1.9-0.5-3.8,0.3-5.6-0.5c-0.2,0.5-0.6,0.3-1,0.2
			c0.2,1.2-0.7,1.4-1.3,2.4c-0.1-1.5,0.9-1.7,1.3-2.4c0.1-0.3-0.3-0.3-0.6-0.3c-0.4,0.3-0.7,0.6-1.1,0.9c-0.2-0.4-0.1-0.7-0.3-0.8
			c-1,0.2-0.6,1.2-1.3,1.6c-0.1,0.1-0.2,0.1-0.3,0.1c-0.5-0.3,0.3-1.2-0.7-1.4c-0.8,0.4-1.2,1.1-1.6,1.8c-0.6-0.2,0.2-1.1-0.3-1.2
			c-0.7,0,0,0.8-0.7,0.7c-0.4-0.4,0.1-1-0.4-1.3c-0.2,0.1-0.3,0.3-0.5,0.4C67,7.8,67.4,7.3,67,7.4c0-0.6,0-1.1,0-1.6
			c0-0.6,0.7-0.8,0.4-1.6c-0.4-0.5-0.4-1.4-1.2-1.8c-0.5,0.3,0.2,1.1-0.7,1.3V0c-0.6,0.9-0.2,2.1-1.2,2.8c-0.6-0.5,0.3-1.4-0.5-1.8
			c-0.6,0-0.8,0.5-0.9,0.6c-0.4,0.7,0.1,1.3-0.4,1.7c-0.3,0.1-0.3-0.6-0.8-0.2v2.1c-0.6-0.1-0.9,0.3-1.2,0.5
			c-0.5,0.4,0.2,1.1-0.5,1.3c-0.3-0.3-0.2-0.7-0.5-1c-0.2-0.2,0-0.8-0.2-1.1c-0.1-0.2-0.3-0.7-0.9-0.6c0.4,1,0.8,2.1,0.4,3.2
			c-0.6-0.6,0-1.4-0.8-2.1v3c-0.7-0.1-0.3-0.7-0.8-1c0,1.3-0.9,2.2-1.3,3.3c-0.1-0.1-0.2-0.2-0.2-0.2c-0.1-0.1-0.2-0.1-0.6-0.3
			c0.3,0.7,0.4,1.1,0.6,1.7c-0.9,0.5-0.2,1.5-0.7,2.2h-0.8c0.3-0.8-0.5-1.3-0.5-2.1c0-1-1.2-0.8-1.1-2.2c-0.3,0.8-0.4,1.1-0.5,1.4
			c-0.7-0.2-0.6-1-1-1.4c-0.3,0-0.6,0-0.9,0c-0.4,0.2,0,0.8-0.5,0.9c-0.4-0.1,0.1-0.8-0.5-0.9c-0.1,0.3-0.2,0.5-0.3,0.8
			c-0.4-0.5-0.9-1-1.3-1.5c-0.3,0.3-0.5,0.5-0.7,0.6c-0.2-0.1-0.3-0.3-0.5-0.4c-0.1,0.2-0.2,0.3-0.2,0.4c0,0.2,0,0.4-0.3,0.4
			c-0.1-0.1-0.2-0.2-0.3-0.3c0,0-0.1,0-0.3,0.1c0,1.8,0.6,3.4,1.9,4.8c-0.1,0.1-0.3,0.3-0.4,0.5c0.3,0.6,0.9,0.6,1.5,1
			c-1.6,0.5-2.8-0.7-4.2-0.3c-1.3,0.4-2.6,0.7-4,1.1c0.7,0.5,1.7,0,1.9,1.2c-1-0.2-1.9,0.1-3.2,0.9c1.2-0.3,1.2,0.5,1.4,0.7
			c0.4,0.1,0.4-0.4,0.7-0.1c0.1,0.3,0.2,0.5,0.3,0.9c1-1.2,1.8-0.1,2.7,0.2c-1.3,0.5-2.5,0.8-3.9,0.8c0.3,0.3,0.4,0.5,0.5,0.6
			c-0.5,0.5-1.3-0.1-1.8,0.5c0.3,0.4,0.7,0.2,0.9,0.2c0.3,0.1,0.7-0.2,0.9,0.3c-0.9,0.3-1.9-0.1-2.7,0.3c0.3,0.6,1.1,0,1.4,0.5
			c-0.3,0.6-1.1-0.1-1.4,0.5c0.1,0.4,0.8-0.1,0.9,0.6c-0.5,0.2-1.3-0.1-1.8,0.3c0.5,0.5,1,0,1.4,0.4c-0.1,0.5-0.7,0.1-0.9,0.5
			c0.3,0.5,1.1-0.1,1.4,0.5c0,0.2,0.1,0.5-0.2,0.6c-0.7,0.2-1.5-0.2-2.1,0.3c0.3,0.6,1.1-0.1,1.3,0.5c-0.3,0.5-0.9-0.1-1.2,0.2
			c-0.2,0.3-0.2,0.5,0,0.9h2.2c-0.4,0.9-1.4,0.8-1.9,1.6c0,0.2,0.1,0.7-0.1,1c-0.2,0.4-0.6,0.6-0.8,0.9c0.2,0.3,0.3,0.5,0.6,0.8
			c-0.7,0.6-1.2,1.4-1.5,2.3c0.4,0.1,0.7,0,0.8,0.3c0.2,0.5-0.4,0.6-0.4,1c0.3,0.2,0.6,0.3,0.8-0.1c0.5-1.1,1.1-2.1,2-2.9
			c0.1-0.1,0.3-0.1,0.4-0.2c0.3,0,0.6,0,1,0.1c-0.2-0.8,0.5-1.3,0.6-1.9c0.2,0,0.4,0,0.7,0c-0.3,0.8-0.5,1.5-1.3,1.9
			c-0.6,1-1.3,2.1-1.9,3.1c-0.1,0.2,0,0.4,0.2,0.5c0.4,0.2,0.6-0.1,0.8-0.3c0.3-0.2,0.4-0.7,0.9-0.6c0.2,0.1,0.5,0.3,0.7,0.4
			c0.6-1.1,1.6-1.9,3-2.2c0-0.3-0.1-0.6,0-0.8c1.7-1.7,4-2.3,6.1-3.9c-0.2,1.1-1.2,1.2-0.9,2c-0.9,0.5-1.7,1-2.7,0.6
			c-0.4,1.5-1.8,1.2-2.5,2v0.7c-0.6,0.3-1.2,0.5-1.8,0.8c-0.3,1.6-2,1.9-2.9,2.9l0.4,0.4c-1.3,1.6-2,3.5-3.3,5
			c0.3,0.4,0.4,0.6,0.6,0.9c-0.3,0.8-1.7,1.2-0.8,2.3c0.6-0.2,0.2-1.4,1.2-1.2c0.3,1.1-1.5,1.8-0.6,3.1c0.5-0.1-0.1-0.8,0.7-0.8
			c0.2,1.2-1.1,2.4-0.2,3.7c0.4-0.2,0-0.8,0.5-0.9c0.4,0.1-0.1,0.8,0.7,0.9c0-1.4-0.1-2.9,0.9-4.2v2.3c0.5-0.1,0.4,0.6,1.1,0.3v-3.1
			c0.6,0.7,0.1,1.6,0.6,2.4c0.4-0.5,0.2-1,0.2-1.5c0.1-0.5-0.1-1,0.4-1.4c-0.2,1.1,0.1,2,1.1,2.8c-0.2-1.9-1-3.7-0.1-6.1
			c0.2,1.6-0.2,2.9,1.1,3.8v-2.8c0.5,0.9,0.4,2,1.4,3.1c-0.5-2.3-0.7-4.3,0-6.3v3.9c0.4-0.4,0.6-0.6,0.8-0.8
			c0.3-0.7-0.2-1.6,0.3-2.3c0.6,0.7-0.1,1.7,0.7,2.6c0-1.2,0-2.2,0-3.2c0-0.1,0.2-0.2,0.3-0.3c0.5,0.5-0.1,1.3,0.6,1.9
			c0.3-1.5-0.2-2.9,0.5-4.2v2c0.3,0.3,0.5,0.5,0.7,0.8c0.4-0.3,0.2-0.7,0.2-1.1c0.5-0.7,1.1-1.2,1.9-1.5c0.7-1.6,0.8-1.8,2.8-2.8
			c0.2,0.9-0.8,1.2-1.1,1.9c-0.2,0.5-0.2,1.1-0.5,1.7c-0.3,0.5-1.2,0.2-1.3,1.1c0,0.3-1,0.4-1.3,1l0.2,0.2c-0.6,0.6-1.3,1.3-1.7,1.7
			v1.6c-0.6-0.1-1.1,0.3-1.3,0.8c0.1,0.4,0.6,0,0.9,0.5c-1.1,0.6-1.4,1.9-2.4,2.8c0.7,0.2,1.1,0.5,1.2,1.1c0.8-0.3,0.5-1.6,1.5-1.8
			c0.1,0.3,0.2,0.6,0.4,1.1c0.3-1,0.4-1.9,1-2.6c0.5,0.9-0.1,1.9,0.4,2.9c0.4-0.6,0-1.3,0.3-1.7c0.4-0.5,0.4-1,0.5-1.5
			c0-0.2,0.2-0.2,0.3-0.1c0.4,0.5-0.2,1.2,0.3,1.8c0.7-1.3,0.5-3,1.6-4.3c0.4,2.8-1.2,4.8-2.1,6.8c0.5,1.7,1,3.4,1.4,5.1
			c0.6-0.3,0-1.1,0.6-1.4c0.5,0.9-0.1,1.9,0.5,2.8c0.1-1.5,0-2.9,0.9-4.2c0.7,2.2-0.9,4.4,0,6.6c0-1.5,0.7-2.8,1.1-4.2v2.5
			c0,0.8-0.3,1.9,0.1,2.3c0.6,0.7,0.1,1.6,0.8,2.4v-5.2c1.4-1.3,0.8-3,1.1-4.5c0.3,0,0.6,0,0.8,0c0-0.1,0.1-0.3,0.1-0.4v-2.3
			c0.4-0.4,0.5,0.4,0.8,0.3c0.2-0.1,0.3,0,0.4,0.1c0,0,0-0.1,0-0.1c0.1-0.3,0.2-0.5,0.1-0.8c0,0,0-0.1,0-0.1c-0.4,0-0.9-0.1-1.5-0.1
			c0.8-0.4,1.1-0.5,1.4-0.6c0.1,0.1,0.3,0.2,0.5,0.2c1.9,0,4.8-0.2,5.7,1.9c0.2,0.4-0.1,0.7,0.4,1c0.2,0.1,0.8,0.1,1.1,0.1
			c0.5,0,1.1,0,1.7,0.1c0.9,0.3,0.3,1,0.4,1.4c0.3,0.1,0.5,0.2,0.8,0.3c0,0,0,0.1,0,0.1c0.7,0.2,1.2,0.6,1.9,0.9
			c0.3,0.1,0.5,0.2,0.6,0.4c0,0,0.1-0.1,0.1-0.1c0.9,0.8,0.4,2,1,2.9c0.5,0.8-0.1,1.8,0.5,2.9c0.3-1.2-0.1-2.3,0.2-3.3
			c0.3-1.1-1-1.9-0.3-3c0.9,1.1,1,2.7,2.1,3.6c-0.3-1.2-0.6-2.3-1-3.7c0.4,0.2,0.6,0.3,0.8,0.4c0.3-0.7,0.7-1.4,1-2.1
			c-0.6-0.9-1.3-1.7-2.3-2.3c0.9-0.3,0.3-1.2,0.8-1.7c0.2,0.2,0.3,0.3,0.5,0.4c0.2-0.1,0.3-0.3,0.6-0.5c0.3,0.6-0.1,1.4,0.5,2.1
			c0.2-0.8-0.1-1.5,0.3-2c0.5,0.2,0,0.9,0.6,0.8c0.8-0.8-0.8-1.5-0.1-2.3c0.8,0.4,0.7,1.2,0.9,1.9c0.4-0.5,0.1-0.9,0.3-1.2
			c0.4-0.6-0.7-0.7-0.4-1.1l0.6-0.6c0.2,0.3,0.3,0.6,0.5,1c0.4-0.5,0.4-1,0-1.5c-0.3-0.4-0.4-0.8-0.6-1.3c0.3,0,0.4-0.1,0.6-0.1
			c1.3,1.8,1.2,4,1.4,6.3c0.7-0.6,0-1.5,0.6-2c0.3,1.3,0.3,1.3,0.6,1.3c0.3-0.3-0.2-1,0.2-1.2c0.6,0.1,0.1,0.8,0.7,0.7
			c0.3-0.8-0.2-1.6,0.3-2.3c0.4,0.2,0.1,0.8,0.5,0.9c0.6-0.5-0.2-1.3,0.7-2c-0.1,0.9,0.5,1.3,0.7,2.1c0.7-0.8-0.1-1.3,0-1.9
			c0.3-0.1,0.5,0.1,0.7-0.3c-0.7-0.5-1-1.4-1.5-2.2c0.9-0.5,0.3-1.5,0.9-2.3c-0.2,1.3,0.7,2.2,0.7,3.6c0.6-1.1,0-2.2,0.8-3.6v3.7
			c0.5,0.2,0.5-0.4,0.8-0.2c0.1,0.3,0.2,0.6,0.3,0.9c0.4-0.3,0.7-0.6,1-1c0.6,1.8,0.8,3.7,0.6,5.6c0.8,0,0.3-0.7,0.8-0.9
			c0.4,1.1,0.9,2.2,1.3,3.3c-0.2-2.2-0.4-4.4-1.1-6.2c0.2-0.6,0.7-0.2,0.9-0.6c0.3-1-0.3-1.7-0.9-2.4v-1.5c-0.3-1.1-1.7-1.2-1.3-2.5
			c0.4,0.4,0.7,0.9,1.4,0.2c-0.3-0.2-0.6-0.5-0.9-0.7c-0.4-0.3,0.1-0.9-0.4-1.2c-0.9-0.4-1.4-1.2-2.1-1.8c0.2-0.2,0.3-0.3,0.4-0.5
			c-0.4-0.8-0.4-0.8-0.3-2.1c0.6,0.7,0.7,1.5,0.9,2.3c0.5-0.2,0.1-0.8,0.6-0.9c0.3,1.1,0.7,2.2,1.6,3.5c-0.1-2.1-1.1-3.6-1.3-5.4
			c1.3,1.9,1.9,4,2.9,6.1c0.6-1.1-0.4-1.9-0.3-2.9c0-0.9-1.2-1.6-0.7-2.9c0.5,0.8,0.6,1.9,1.5,2.4c0.6-0.8-0.5-1-0.3-1.7
			c0.2-0.7-0.9-0.8-0.9-1.5c0-0.7-0.9-0.7-0.9-1.5c0.8,0,1.4,1.1,2.3,0.2c-0.6-0.3-1.1-0.5-1.7-0.7C90.5,32.9,90.5,32.8,90.7,32.7z
			 M48.8,28.1c0.2-0.4,0.7-0.7,1.1-1.1c0.3,0.2,0.2,0.5,0.2,0.8C49.5,28.3,49.3,28.6,48.8,28.1z M49.2,24.6
			c-0.6,0.6-1.4,0.9-2.1,1.4c-0.3,0.2-0.6,0.2-1,0.1v-1.7c0.4,0.1,0.1,0.6,0.6,0.8c0-0.6,0.3-1.2,0.5-1.8c0.3,0,0.5-0.1,0.8-0.1
			c0.1-0.2,0.1-0.4,0.2-0.6c0.2,0.1,0.3,0.2,0.5,0.2c0.3-0.1,0-0.5,0.3-0.6c0.1,0,0.1,0.1,0.3,0.2c0.3-0.1,0.6-0.3,0.9-0.4
			c-0.1-0.1-0.2-0.2-0.3-0.4c0.6-0.3,1.1-0.2,1.6,0.1c0.2-0.1,0.1-0.3,0.1-0.5c0.3-0.3,0.3,0.1,0.5,0.2c0.2-0.1,0.3-0.2,0.4-0.3
			c0.4-0.1,0.5,0.2,0.7,0.3c0.2-0.1,0.3-0.4,0.7-0.3c0.5,0.5,1.3,1,1.5,2.1c-0.7-0.2-1.4-0.2-2.1-0.5c-0.7-0.3-1.1-0.2-1.7,0.1
			C50.9,23.4,50,23.9,49.2,24.6z M56.3,31c0.3,0.1,0.5,0.2,0.8,0.3v1.1c-0.4,0.3-0.8,0.1-1.3,0.2c-0.2-1-0.2-1.9,0-2.9
			C56.5,30.1,56.1,30.6,56.3,31z M54.6,34.6c-0.3-0.6-0.8-0.4-1.1-0.7v-1.7c0.3,0,0.5-0.1,0.7,0c0.4,0.3,0.8,0.7,1.1,0.9
			C55.4,34,54.8,34.1,54.6,34.6z M52.8,28.3c-0.3,0.1-0.6,0.1-0.9-0.3c0.6-0.5,1.1-0.8,1.5-1.2C53.8,27.3,52.6,27.6,52.8,28.3z
			 M54.7,37.8c0.2,0,0.5,0,0.6,0.4c-0.3,1-1.3,1.4-2.1,2C53.4,39.1,53.8,38.3,54.7,37.8z M59.1,45.2c-2.4,0.4-4.1,2-6,3.5
			c0-0.9,0.6-1.5,0.6-2.3c0.1,0.3,0.2,0.5,0.3,0.9c0.5-0.6,0-1.4,0.4-1.9c0.6,0,0,0.7,0.5,0.8c0.3-0.7,1-1.3,0.7-2.4
			c0.6,0.3,0.4,0.6,0.6,0.9c0.4,0.2,0.4-0.3,0.7-0.3c0.3,0,0.6,0,0.9,0c0.5-0.2,0-1.3,1.1-0.8C59.2,44,59,44.5,59.1,45.2z
			 M58.6,26.2c-0.3-0.3-0.7-0.6-0.9-1.3c1.2,0.3,1.7,1.2,2.4,1.8C59.2,27.3,59,26.5,58.6,26.2z M61.3,9c-0.4-1-0.4-1.9,0-2.7V9z
			 M64.6,17.8c-0.1,0.1-0.3,0.1-0.4-0.1c-0.1-1.4-0.9-2.6-0.4-4h0.6c0.5,0.7-0.3,1.7,0.7,2.2C64.8,16.6,64.6,17.2,64.6,17.8z
			 M65.2,30.7c0-0.8-0.2-1.4,0.1-1.9c0.7,0.4,0.7,0.4,1.1,1.7C66.2,30.9,65.8,30.6,65.2,30.7z M70.5,27.5c-0.1-0.3-0.2-0.5-0.4-1
			c0-0.1,0.2-0.5,0.5-1C71,26.1,70.7,26.7,70.5,27.5z M68.1,24c0.4-0.9,1.3-1.3,1.4-2.3c0.4-0.1,0.6,0,0.8,0.3
			C69.9,23,69.2,23.7,68.1,24z M70.7,47.7H70c-0.8-1,0.6-1.4,0.7-2.2V47.7z M71.6,48.6c-0.6-0.9-0.3-1.8,0-2.7V48.6z M71.5,17.3
			c0.8-1.6,2.1-1.1,2.9-1.7C73.9,16.7,72.8,16.6,71.5,17.3z M74,50.9c-0.4-0.2-0.9-0.4-1.3-0.6c0.1-0.2,0.3-0.3,0.4-0.5
			c-0.1-0.3-0.7-0.4-0.2-1.2c0,0,0.2-0.2,0.6-0.5C73.5,49.1,74.3,49.8,74,50.9z M75.2,37.4c0.4,0.7,0.3,1.5,0.8,2.1
			C74.7,39.1,75,38.2,75.2,37.4z M73.2,28.2C73,26.5,74.8,27,74.6,26c1.9-0.2,3.4,0.8,5.1,0.7C77.5,26.9,75.3,26.7,73.2,28.2z
			 M76.5,39.1v-3c0.2-0.2,0.4-0.1,0.4,0c-0.2,1.7,0.6,3,1.5,4.5C76.8,40.8,77.2,39.4,76.5,39.1z M77.1,29.2c0.5,1,0.9,1.9,1.5,3.1
			C77.2,31.1,77,30.6,77.1,29.2z M79.5,41.5c-1-0.5-0.8-1.4-0.5-2.7C79.2,40,80.1,40.6,79.5,41.5z M81,41.9
			c-0.8-0.6-0.8-0.6-0.6-1.7C80.9,40.6,81.4,41.1,81,41.9z M80.8,33.6c-0.4-1-0.8-2.1-1.1-3.1c0.4,0.4,0.8,0.8,1.3,1.3
			c-0.2,0.4,0.7,0.9,0.6,1.4C81.4,33.6,81.1,33.5,80.8,33.6z M82.5,43.4c-1.2-1.2-1.2-1.2,0-2.3V43.4z M82.7,34.9
			c-0.3-0.8-0.1-1.9-1-3c1.6,0.8,1.1,2.1,1.9,2.6C83.3,34.9,83.1,35,82.7,34.9z M83.8,45.3c-0.3-0.7-1.2-1.2-0.6-2.2
			C84.3,43.5,83.9,44.5,83.8,45.3z M86.1,37.3c-0.6-0.4-1.1-0.7-1.5-0.9c-0.3-0.5-0.3-1,0-1.4c0.3,0.4,0.5,0.8,0.8,1.2
			C85.7,36.5,86.6,36.3,86.1,37.3z"/>
		<path class="st0" d="M68.5,108.1c-0.6-1.3-0.3-2.8-0.5-4.2c-0.2-2.7-0.2-5.4-0.4-8.1c-0.2-3.9,0-7.8-0.3-11.7
			c-0.2-3.5,0.1-7-0.3-10.5c-0.1-0.8,0.1-1.6,0.4-2.3c0.3-0.5,0.4-1.1,0.3-1.6c0.2-0.6,0.7-0.6,1-0.9c0-0.3-0.1-0.6-0.1-1
			c0.3-0.2,0.5-0.4,0.8-0.6c0.3-0.9-0.5-1-0.9-1.4c0.1-0.5,0.7-0.6,0.9-1c0.2-0.3-0.2-0.7,0.1-1c0.2-0.5,0.8-0.5,1-1.1
			c-0.5-1.2-1.3-0.3-2.1-0.3c0.3-0.8,1.3-1.3,1.1-2.3c0.4-0.3,0.7-0.5,1-0.8c0.1-1.2-1-0.6-1.4-1.1c0.4-0.8,1.4-0.5,1.9-1
			c-0.1-1.1-0.1-1.1-2.4-0.8c0.2-0.7,0.2-0.7,1.9-2.3c0.1-0.6-0.3-0.9-0.8-1c-0.6,0-1.1,0.5-1.8,0.2c0.4-0.8,1.1-0.9,1.8-1.2
			c-1.3-2.1-3.4-3-5.7-3.2c-2.3,0.2-4.4,1.1-5.7,3.2c0.7,0.3,1.4,0.4,1.8,1.2c-0.7,0.4-1.2-0.2-1.8-0.2c-0.5,0.2-0.9,0.4-0.8,1
			c1.7,1.6,1.7,1.6,1.9,2.3c-2.3-0.3-2.3-0.3-2.4,0.8c0.5,0.5,1.5,0.2,1.9,1c-0.4,0.5-1.6-0.1-1.4,1.1c0.3,0.2,0.6,0.5,1,0.8
			c-0.2,1,0.8,1.4,1.1,2.3c-0.8,0-1.7-0.9-2.1,0.3c0.2,0.6,0.8,0.6,1,1.1c0.3,0.3-0.2,0.7,0.1,1c0.2,0.4,0.7,0.5,0.9,1
			c-0.3,0.4-1.1,0.5-0.9,1.4c0.2,0.2,0.5,0.4,0.8,0.6c0,0.3-0.1,0.7-0.1,1c0.3,0.3,0.8,0.4,1,0.9c-0.1,0.5,0.1,1,0.3,1.6
			c0.4,0.7,0.5,1.6,0.4,2.3c-0.4,3.5-0.1,7-0.3,10.5c-0.3,3.9,0,7.8-0.3,11.7c-0.1,2.7-0.1,5.4-0.4,8.1c-0.1,1.4,0.1,2.9-0.5,4.2
			c-1.2,1.3-3.3-0.2-4.4,1.5c0.4,0.4,0.9,0.3,1.3,0.3c2.5,0,5.1,0,7.6,0.1c2.5,0,5.1-0.1,7.6-0.1c0.4,0,0.8,0.1,1.3-0.3
			C71.8,107.9,69.7,109.4,68.5,108.1z"/>
	</g>
</g>
</svg>
